<svg width="8" height="6" viewBox="0 0 8 6" fill="none" xmlns="http://www.w3.org/2000/svg">
<g id="rad-ico-2" clip-path="url(#clip0_10216_13986)">
<path id="Vector" fill-rule="evenodd" clip-rule="evenodd" d="M0.735282 5.23073L0.621168 5.80365L0.645995 5.82965C0.807364 5.90376 0.988528 5.9425 1.17262 5.94227L1.65482 5.94227L1.65482 5.92304L3.58586 5.92304L3.86172 5.84611L4.32149 5.76919C4.4208 5.81058 4.51348 5.86227 4.59735 5.92304L4.61574 5.92304C4.65139 5.8489 4.67609 5.77141 4.68931 5.69227L4.96517 5.76919L5.33298 5.76919L5.60885 5.69227L5.79275 5.84611L5.97666 5.84611L6.12995 5.92304L7.04232 5.92304C7.21411 5.89443 7.37528 5.832 7.51249 5.74091C7.64969 5.64983 7.75898 5.53271 7.83131 5.39925C7.90363 5.2658 7.93691 5.11985 7.92838 4.9735C7.91985 4.82714 7.86977 4.68459 7.78227 4.55765L7.0631 3.51534L6.80425 3.4615L6.8962 3.30765L6.88977 3.26442L6.50356 2.70488L6.44839 2.62604C6.41439 2.61898 6.3795 2.61539 6.34448 2.61534C6.30567 2.62434 6.06862 2.38457 6.06862 2.38457C6.06862 2.38457 5.96085 2.02981 5.90972 1.85619L5.78898 1.68357C5.70191 1.63059 5.61105 1.58211 5.51689 1.53842L5.33298 1.15381L5.33298 1.03204L5.14908 0.76919L5.16434 0.764421L4.95524 0.461498C4.85839 0.321183 4.71909 0.204666 4.55135 0.123657C4.38361 0.0426474 4.19334 -3.26642e-07 3.99965 -3.43575e-07C3.80596 -3.60507e-07 3.61569 0.0426474 3.44795 0.123657C3.28021 0.204666 3.14092 0.321183 3.04406 0.461497L2.57436 1.14204L2.57436 1.30765C2.48844 1.38743 2.39775 1.46353 2.30264 1.53565L2.21197 1.66711C2.21013 1.67527 2.20848 1.6825 2.20655 1.69227C2.19234 1.79449 2.19234 1.89774 2.20655 1.99996C2.11215 2.04304 2.01429 2.08059 1.91367 2.11234L1.37896 2.92304L1.3568 2.90627L0.21703 4.55765C0.112431 4.70786 0.0611673 4.87989 0.0692449 5.05359C0.0773225 5.22729 0.144407 5.39547 0.262639 5.53842L0.735282 5.23073ZM7.0722 3.51757L6.88829 3.25473L6.88977 3.2645L7.0631 3.51534L7.0722 3.51757ZM2.57436 1.11057L2.28931 1.54334L2.2985 1.53842C2.29951 1.53788 2.30154 1.53634 2.30264 1.53565L2.57436 1.14204L2.57436 1.11057ZM2.1065 1.81988L2.21197 1.66711C2.21289 1.66288 2.21381 1.65981 2.21464 1.65596L2.1065 1.81988Z" fill="#F2E8D9"/>
</g>
<defs>
<clipPath id="clip0_10216_13986">
<rect width="8" height="6" fill="white" transform="matrix(-1 -8.74228e-08 -8.74228e-08 1 8 0)"/>
</clipPath>
</defs>
</svg>
