<svg width="17" height="17" viewBox="0 0 17 17" fill="none" xmlns="http://www.w3.org/2000/svg">
<g id="egs" clip-path="url(#clip0_10494_11752)">
<mask id="mask0_10494_11752" style="mask-type:luminance" maskUnits="userSpaceOnUse" x="-3" y="-1" width="23" height="19">
<g id="clipPath20">
<path id="path18" d="M-2.65625 -0.630032H19.5946V17.6245H-2.65625V-0.630032Z" fill="white"/>
</g>
</mask>
<g mask="url(#mask0_10494_11752)">
<g id="g16">
<path id="Subtract" fill-rule="evenodd" clip-rule="evenodd" d="M14.1708 0.999992H2.83943C1.92099 0.999992 1.58203 1.31643 1.58203 2.17428V12.5255C1.58203 12.6226 1.58622 12.7127 1.59541 12.7963L1.6004 12.843C1.61825 13.014 1.63581 13.1822 1.80679 13.3716C1.82502 13.3918 2.01547 13.5241 2.01547 13.5241L2.06792 13.5483C2.14447 13.5837 2.20858 13.6133 2.30339 13.649L7.88309 15.8314C8.17275 15.9554 8.29388 16.0037 8.50426 15.9998V15.9998H8.50509H8.50592V15.9998C8.7163 16.0037 8.83743 15.9554 9.12711 15.8314L14.7068 13.649C14.8015 13.6134 14.8656 13.5838 14.942 13.5484L14.9947 13.5241C14.9947 13.5241 15.1852 13.3918 15.2034 13.3716C15.3744 13.1822 15.3919 13.014 15.4098 12.843L15.4148 12.7963C15.424 12.7127 15.4282 12.6226 15.4282 12.5255V2.17428C15.4282 1.31643 15.0892 0.999992 14.1708 0.999992ZM13.4081 11.4069L13.4055 11.4308L13.403 11.457L13.3979 11.4809L13.3902 11.5048L13.3852 11.5262L13.3775 11.5501L13.3673 11.5716L13.3571 11.5907L13.347 11.6122L13.3342 11.6313L13.3215 11.6504L13.3063 11.6695L13.2934 11.6886L13.2783 11.7053L13.2604 11.722L13.2451 11.7364L13.2247 11.7531L13.2069 11.7674L13.1865 11.7818L13.1662 11.7935L13.1459 11.8079L13.1229 11.8198L13.1 11.8293L13.0771 11.8413L13.0515 11.8508L13.0261 11.8604L13.0007 11.8675L12.9753 11.8747L12.9523 11.8819L12.9268 11.8867L12.904 11.8914L12.8811 11.8962L12.8555 11.901L12.8301 11.9034L12.8072 11.9057L12.7816 11.9081L12.7537 11.9105L12.7282 11.9129H12.7028H12.6748H12.6467H12.6213L12.5959 11.9105H12.5679L12.5424 11.9081L12.5169 11.9057L12.4889 11.9034L12.4635 11.8986L12.4381 11.8962L12.4125 11.8914L12.387 11.8867L12.3616 11.8819L12.3362 11.8771L12.3106 11.87L12.2878 11.8652L12.2623 11.858L12.2369 11.8508L12.2139 11.8413L12.1885 11.8341L12.1656 11.827L12.1402 11.8174L12.1172 11.8079L12.0943 11.7983L12.0714 11.7865L12.0484 11.777L12.0255 11.765L12.0052 11.7531L11.9822 11.7411L11.9619 11.7292L11.9414 11.7173L11.9211 11.7029L11.9008 11.6886L11.8804 11.6743L11.86 11.66L11.8421 11.6456L11.8218 11.6289L11.8372 11.6098L11.8549 11.5931L11.8703 11.574L11.888 11.5549L11.9034 11.5382L11.9186 11.5191L11.9365 11.5L11.9517 11.4833L11.9696 11.4642L11.9848 11.4475L12.0027 11.4284L12.0179 11.4092L12.0332 11.3926L12.051 11.3735L12.0663 11.3543L12.0841 11.3376L12.0994 11.3185L12.1197 11.3329L12.1426 11.3472L12.163 11.3615L12.1859 11.3759L12.2064 11.3878L12.2293 11.4021L12.2495 11.414L12.2726 11.4236L12.2929 11.4355L12.3157 11.4451L12.3388 11.4546L12.3616 11.4642L12.3845 11.4714L12.4075 11.4809L12.4329 11.4881L12.4584 11.4952L12.4812 11.5024L12.5068 11.5072L12.5322 11.5119L12.5577 11.5167L12.5856 11.5191L12.6112 11.5239H12.6366L12.6646 11.5262H12.69H12.7206L12.7486 11.5239L12.7741 11.5191L12.797 11.5143L12.8199 11.5095L12.8403 11.5024L12.8581 11.4928L12.8786 11.4785L12.8937 11.4618L12.904 11.4427L12.9117 11.4212L12.9142 11.3973V11.3926L12.9117 11.3639L12.9014 11.34L12.8886 11.3233L12.8709 11.309L12.8504 11.2947L12.8301 11.2851L12.8072 11.2756L12.7816 11.266L12.7511 11.2541L12.7333 11.2493L12.7131 11.2445L12.69 11.2373L12.6672 11.2326L12.6417 11.2254L12.6162 11.2206L12.5882 11.2135L12.5628 11.2087L12.5348 11.2015L12.5094 11.1968L12.4838 11.1896L12.4584 11.1848L12.4329 11.1777L12.4099 11.1705L12.3845 11.1657L12.3616 11.1586L12.3388 11.1514L12.3157 11.1442L12.2878 11.1347L12.2623 11.1251L12.2369 11.1156L12.2113 11.106L12.1885 11.0941L12.163 11.0822L12.1426 11.0702L12.1197 11.0583L12.0994 11.044L12.0789 11.032L12.0612 11.0177L12.0433 11.001L12.0255 10.9843L12.0102 10.9675L11.995 10.9508L11.9822 10.9341L11.9696 10.915L11.9568 10.8935L11.9466 10.877L11.9389 10.8579L11.9314 10.8364L11.9237 10.8173L11.9186 10.7934L11.9135 10.7719L11.9109 10.748L11.9084 10.7241L11.9058 10.6979V10.6716V10.6669V10.643L11.9084 10.6191L11.9109 10.5976L11.9135 10.5737L11.9186 10.5523L11.9237 10.5308L11.9314 10.5092L11.9365 10.4878L11.9466 10.4663L11.9568 10.4448L11.967 10.4233L11.9797 10.4018L11.9924 10.3804L12.0076 10.3612L12.023 10.3421L12.0407 10.323L12.0586 10.3063L12.0764 10.2872L12.0969 10.2705L12.1146 10.2586L12.1351 10.2442L12.1554 10.2299L12.1757 10.218L12.1987 10.206L12.2216 10.1965L12.2444 10.1846L12.2675 10.175L12.2929 10.1678L12.3183 10.1583L12.3413 10.1511L12.3616 10.1463L12.3845 10.1416L12.4075 10.1368L12.4329 10.132L12.4558 10.1272L12.4812 10.1249L12.5068 10.1225L12.5322 10.1201L12.5577 10.1177H12.5831H12.6112H12.6392H12.6672L12.6952 10.1201L12.7231 10.1225H12.7486L12.7767 10.1249L12.8021 10.1296L12.8301 10.132L12.8555 10.1368L12.8786 10.1416L12.904 10.1463L12.9294 10.1511L12.9523 10.1559L12.9778 10.1631L13.0007 10.1702L13.0236 10.175L13.0491 10.1846L13.072 10.1917L13.0949 10.2013L13.1177 10.2108L13.1433 10.2204L13.1662 10.2323L13.1865 10.2419L13.2095 10.2538L13.2324 10.2657L13.2527 10.2777L13.2757 10.292L13.296 10.3039L13.3165 10.3183L13.3368 10.3326L13.3571 10.3469L13.3419 10.366L13.3291 10.3851L13.3139 10.4042L13.2986 10.4233L13.2834 10.4448L13.2706 10.4639L13.2552 10.483L13.24 10.5021L13.2273 10.5212L13.2121 10.5403L13.1967 10.5594L13.1839 10.5785L13.1688 10.6L13.1534 10.6191L13.1382 10.6382L13.1254 10.6573L13.1102 10.6764L13.0898 10.6621L13.0669 10.6501L13.0466 10.6382L13.0261 10.6239L13.0033 10.6143L12.9828 10.6024L12.9599 10.5928L12.9396 10.5833L12.9166 10.5737L12.8963 10.5642L12.8734 10.557L12.853 10.5475L12.825 10.5403L12.7996 10.5331L12.7741 10.526L12.7486 10.5212L12.7231 10.5164L12.6977 10.5116L12.6723 10.5092L12.6467 10.5069L12.6239 10.5045H12.5984H12.5679L12.5399 10.5092L12.5143 10.514L12.4915 10.5188L12.4712 10.5284L12.4532 10.5379L12.4304 10.557L12.415 10.5785L12.405 10.6L12.4024 10.6239V10.6287L12.405 10.6597L12.4176 10.686L12.4278 10.7003L12.4456 10.717L12.4686 10.7289L12.4889 10.7409L12.5143 10.7504L12.5424 10.76L12.573 10.7695L12.5933 10.7743L12.6136 10.7815L12.6366 10.7862L12.6595 10.7934L12.6849 10.7982L12.7131 10.8053L12.7411 10.8125L12.769 10.8197L12.797 10.8244L12.8224 10.8316L12.8504 10.8388L12.876 10.8435L12.9014 10.8507L12.9268 10.8579L12.9497 10.865L12.9753 10.8722L12.9982 10.8794L13.021 10.8865L13.0491 10.8959L13.0746 10.9079L13.1 10.9174L13.1254 10.9293L13.1484 10.9413L13.1713 10.9532L13.1916 10.9652L13.2121 10.9795L13.2324 10.9914L13.2527 11.0081L13.2732 11.0248L13.2909 11.044L13.3088 11.0607L13.324 11.0798L13.3393 11.1013L13.352 11.1203L13.3648 11.1419L13.375 11.161L13.3827 11.1824L13.3902 11.2039L13.3953 11.2254L13.4004 11.2493L13.4055 11.2732L13.4081 11.297L13.4107 11.3233V11.3496V11.3543V11.3806L13.4081 11.4069ZM11.6225 11.8843H11.5969H11.5715H11.5461H11.5207H11.4951H11.4696H11.4443H11.4188H11.3907H11.3653H11.3398H11.3144H11.2888H11.2634H11.238H11.2126H11.187H11.1616H11.1361H11.1107H11.0853H11.0597H11.0343H11.0089H10.9834H10.9578H10.9324H10.907H10.879H10.8535H10.828H10.8026H10.7772H10.7516H10.7262H10.7008H10.6753H10.6498H10.6243H10.5989H10.5735H10.5479H10.5225H10.4971H10.4716H10.4461H10.4206H10.3926H10.3672H10.3418H10.3162H10.2908H10.2654H10.24H10.2144H10.189H10.1636V11.8604V11.8365V11.8126V11.7889V11.765V11.7411V11.7173V11.6934V11.6695V11.6456V11.6218V11.5979V11.574V11.5501V11.5262V11.5024V11.4785V11.4546V11.4331V11.4092V11.3854V11.3615V11.3376V11.3137V11.2899V11.266V11.2421V11.2182V11.1944V11.1705V11.1466V11.1227V11.0989V11.075V11.0511V11.0272V11.0034V10.9795V10.9556V10.9317V10.9079V10.8841V10.8603V10.8364V10.8125V10.7886V10.7648V10.7409V10.717V10.6931V10.6692V10.6454V10.6215V10.5976V10.5761V10.5523V10.5284V10.5045V10.4806V10.4567V10.4329V10.409V10.3851V10.3612V10.3374V10.3135V10.2896V10.2657V10.2419V10.218V10.1941V10.1702V10.1463H10.189H10.2144H10.24H10.2654H10.2908H10.3162H10.3418H10.3672H10.3926H10.4181H10.4437H10.4691H10.4945H10.5199H10.5429H10.5684H10.5938H10.6192H10.6448H10.6702H10.6956H10.7211H10.7466H10.7721H10.7975H10.8229H10.8485H10.8739H10.8993H10.9248H10.9503H10.9758H11.0012H11.0266H11.052H11.0776H11.103H11.1285H11.1539H11.1795H11.2049H11.2303H11.2557H11.2788H11.3042H11.3296H11.3551H11.3806H11.406H11.4314H11.4569H11.4825H11.5079H11.5333H11.5587H11.5843H11.6097H11.6352V10.1702V10.1917V10.2156V10.2395V10.2633V10.2848V10.3087V10.3326V10.3541V10.378V10.4018V10.4233V10.4472V10.4711V10.4949V10.5164V10.5403H11.6097H11.5843H11.5587H11.5333H11.5079H11.4825H11.4594H11.434H11.4086H11.3832H11.3576H11.3322H11.3067H11.2813H11.2557H11.2303H11.2049H11.1795H11.1539H11.131H11.1056H11.0802H11.0546H11.0292H11.0037H10.9783H10.9527H10.9273H10.9019H10.8765H10.8509H10.8255H10.8026H10.7772H10.7516H10.7262H10.7008H10.6753H10.6498V10.5642V10.5881V10.6119V10.6358V10.6597V10.6812V10.705V10.7289V10.7528V10.7767V10.8005V10.8244H10.6753H10.7008H10.7262H10.7516H10.7772H10.8026H10.828H10.8535H10.8765H10.9019H10.9273H10.9527H10.9783H11.0037H11.0292H11.0546H11.0802H11.1056H11.131H11.1565H11.182H11.2074H11.2329H11.2583H11.2839H11.3093H11.3322H11.3576H11.3832H11.4086H11.434H11.4594H11.485H11.5104H11.5359V10.8483V10.8698V10.8935V10.9174V10.9389V10.9628V10.9867V11.0081V11.032V11.0559V11.0798V11.1013V11.1251V11.149V11.1705V11.1944H11.5104H11.485H11.4594H11.434H11.4086H11.3832H11.3576H11.3322H11.3093H11.2839H11.2583H11.2329H11.2074H11.182H11.1565H11.131H11.1056H11.0802H11.0546H11.0292H11.0037H10.9783H10.9527H10.9273H10.9019H10.8765H10.8535H10.828H10.8026H10.7772H10.7516H10.7262H10.7008H10.6753H10.6498V11.2182V11.2445V11.2684V11.2923V11.3185V11.3424V11.3663V11.3926V11.4164V11.4403V11.4666V11.4904H10.6753H10.7008H10.7262H10.7516H10.7772H10.8026H10.828H10.8535H10.879H10.907H10.9324H10.9578H10.9834H11.0089H11.0343H11.0597H11.0853H11.1107H11.1361H11.1616H11.187H11.2126H11.238H11.2634H11.2888H11.3144H11.3398H11.3653H11.3907H11.4188H11.4443H11.4696H11.4951H11.5207H11.5461H11.5715H11.5969H11.6225H11.6479V11.5143V11.5358V11.5597V11.5836V11.6074V11.6289V11.6528V11.6767V11.6982V11.722V11.7459V11.7674V11.7912V11.815V11.8389V11.8604V11.8843H11.6225ZM9.76215 11.8843H9.73673H9.71129H9.68319H9.65777H9.63233H9.60691H9.58132H9.5559H9.52792H9.5025H9.47706H9.4515H9.42608H9.40066H9.37268H9.34709H9.32167H9.29622V11.8604V11.8365V11.8126V11.7888V11.7647V11.7409V11.717V11.6931V11.6692V11.6454V11.6215V11.5975V11.5736V11.5497V11.5258V11.502V11.4779V11.454V11.4302V11.4063V11.3824V11.3586V11.3345V11.3107V11.2868V11.2629V11.239V11.2152V11.1911V11.1672V11.1434V11.1195V11.0957V11.0718V11.0477V11.0239V11V10.9761V10.9522V10.9282V10.9044V10.8805V10.8566L9.28347 10.8757L9.26827 10.8973L9.25546 10.9164L9.24028 10.9355L9.2275 10.957L9.21213 10.9761L9.19952 10.9952L9.18671 11.0169L9.17154 11.0359L9.15873 11.055L9.14341 11.0742L9.13077 11.0958L9.11542 11.1149L9.10279 11.134L9.08998 11.1555L9.07463 11.1747L9.06199 11.1938L9.04665 11.2153L9.03404 11.2344L9.01869 11.2535L9.00605 11.2751L8.99324 11.2943L8.97792 11.3133L8.96529 11.3348L8.94994 11.3541L8.9373 11.3732L8.92195 11.3923L8.90915 11.4138L8.89651 11.433L8.88119 11.4521L8.86855 11.4736L8.85321 11.4927L8.84043 11.5118L8.82522 11.5334L8.81244 11.5525H8.80234L8.78702 11.531L8.77421 11.5118L8.75901 11.4903L8.74623 11.4712L8.73103 11.4497L8.71825 11.4305L8.70307 11.409L8.69026 11.3899L8.67491 11.3684L8.66228 11.3493L8.64693 11.3276L8.63432 11.3086L8.61897 11.2871L8.60616 11.268L8.59099 11.2463L8.57818 11.2272L8.563 11.2058L8.54766 11.1867L8.53488 11.165L8.51967 11.1459L8.50689 11.1244L8.49169 11.1054L8.47891 11.0837L8.4637 11.0646L8.45092 11.0431L8.43557 11.024L8.42294 11.0025L8.40759 10.9833L8.39495 10.9618L8.37961 10.9427L8.36683 10.9212L8.35165 10.9021L8.33881 10.8805L8.32364 10.8614V10.8852V10.9091V10.933V10.957V10.9809V11.0048V11.0287V11.0525V11.0765V11.1004V11.1219V11.1458V11.1697V11.1935V11.2176V11.2414V11.2653V11.2892V11.3131V11.3369V11.3609V11.3848V11.4087V11.4326V11.4565V11.4803V11.5044V11.5282V11.5521V11.576V11.5999V11.6239V11.6454V11.6692V11.6931V11.717V11.7409V11.7647V11.7888V11.8126V11.8365V11.8604V11.8843H8.29822H8.27266H8.24721H8.2218H8.19638H8.17082H8.14537H8.11996H8.09451H8.06895H8.04353H8.01809H7.99267H7.96711H7.94169H7.91625H7.8908H7.86524H7.83982V11.8604V11.8365V11.8126V11.7889V11.765V11.7411V11.7173V11.6934V11.6695V11.6456V11.6218V11.5979V11.574V11.5501V11.5262V11.5024V11.4785V11.4546V11.4331V11.4092V11.3854V11.3615V11.3376V11.3137V11.2899V11.266V11.2421V11.2182V11.1944V11.1705V11.1466V11.1227V11.0989V11.075V11.0511V11.0272V11.0034V10.9795V10.9556V10.9317V10.9079V10.8841V10.8603V10.8364V10.8125V10.7886V10.7648V10.7409V10.717V10.6931V10.6692V10.6454V10.6215V10.5976V10.5761V10.5523V10.5284V10.5045V10.4806V10.4567V10.4329V10.409V10.3851V10.3612V10.3374V10.3135V10.2896V10.2657V10.2419V10.218V10.1941V10.1702V10.1463H7.86524H7.8908H7.91371H7.9391H7.96454H7.9901H8.01298H8.0384H8.06399H8.0894H8.11228H8.1377H8.16329H8.1887H8.21155H8.23697H8.26256H8.28801H8.31086H8.33627H8.36186L8.3745 10.1655L8.38728 10.1869L8.40246 10.2059L8.41526 10.2274L8.42804 10.2465L8.44068 10.268L8.45346 10.2869L8.46869 10.3084L8.48145 10.3275L8.49425 10.3466L8.50689 10.368L8.51967 10.3871L8.53488 10.4086L8.54766 10.4277L8.56044 10.449L8.57307 10.4681L8.58842 10.4872L8.60123 10.5086L8.61384 10.5277L8.62662 10.5491L8.63928 10.5683L8.65463 10.5896L8.66741 10.6087L8.68002 10.6302L8.69283 10.6491L8.70547 10.6682L8.72081 10.6897L8.73359 10.7089L8.74623 10.7303L8.75901 10.7493L8.77165 10.7708L8.78702 10.7899L8.7998 10.8112L8.81244 10.8304L8.82522 10.8112L8.838 10.7899L8.85321 10.7708L8.86596 10.7493L8.87862 10.7303L8.8914 10.7089L8.90661 10.6897L8.91939 10.6682L8.9322 10.6491L8.9448 10.6302L8.96015 10.6087L8.97279 10.5896L8.9856 10.5683L8.99835 10.5491L9.01355 10.5277L9.02633 10.5086L9.03914 10.4872L9.05175 10.4681L9.06459 10.449L9.07976 10.4277L9.09254 10.4086L9.10532 10.3871L9.11799 10.368L9.13331 10.3466L9.14597 10.3275L9.15873 10.3084L9.17154 10.2869L9.18671 10.268L9.19952 10.2465L9.21213 10.2274L9.22494 10.2059L9.24028 10.1869L9.25292 10.1655L9.2657 10.1463H9.29112H9.31656H9.33956H9.365H9.39042H9.41584H9.43886H9.4643H9.48969H9.51514H9.53816H9.56358H9.58899H9.61444H9.63743H9.66288H9.6883H9.71371H9.73673H9.76215H9.78757V10.1702V10.1941V10.218V10.2419V10.2657V10.2896V10.3135V10.3374V10.3612V10.3851V10.409V10.4329V10.4567V10.4806V10.5045V10.5284V10.5523V10.5761V10.5976V10.6215V10.6454V10.6692V10.6931V10.717V10.7409V10.7648V10.7886V10.8125V10.8364V10.8603V10.8841V10.9079V10.9317V10.9556V10.9795V11.0034V11.0272V11.0511V11.075V11.0989V11.1227V11.1466V11.1705V11.1944V11.2182V11.2421V11.266V11.2899V11.3137V11.3376V11.3615V11.3854V11.4092V11.4331V11.4546V11.4785V11.5024V11.5262V11.5501V11.574V11.5979V11.6218V11.6456V11.6695V11.6934V11.7173V11.7411V11.765V11.7889V11.8126V11.8365V11.8604V11.8843H9.76215ZM6.80796 11.1681L6.80028 11.1465L6.79021 11.1226L6.77997 11.1011L6.7723 11.0795L6.76223 11.058L6.75201 11.0341L6.74431 11.0125L6.73407 10.991L6.72403 10.9695L6.71633 10.9479L6.70609 10.924L6.69858 10.9025L6.68834 10.8809L6.6781 10.8594L6.67046 10.8379L6.66036 10.8139L6.65015 10.7924L6.64247 10.7709L6.63223 10.7493L6.62216 10.7254L6.61449 10.7038L6.60425 10.6823L6.59418 10.7038L6.58653 10.7254L6.57629 10.7493L6.56605 10.7709L6.55852 10.7924L6.54831 10.8139L6.53806 10.8379L6.52799 10.8594L6.52029 10.8809L6.51008 10.9025L6.49984 10.924L6.49231 10.9479L6.4821 10.9695L6.47185 10.991L6.46421 11.0125L6.45411 11.0341L6.44387 11.058L6.43366 11.0795L6.42615 11.1011L6.41591 11.1226L6.40567 11.1465L6.398 11.1681L6.38793 11.1896H6.41335H6.43876H6.46421H6.48977H6.51519H6.5406H6.56605H6.59164H6.61449H6.6399H6.66549H6.69091H6.71633H6.74177H6.76719H6.79275H6.81817L6.80796 11.1681ZM7.60756 11.8843H7.582H7.55909H7.5337H7.50811H7.4827H7.45725H7.4344H7.40881H7.3834H7.35798H7.33253H7.30697H7.28409H7.25868H7.23323H7.20767H7.18225H7.15938H7.13396H7.1084L7.0983 11.8628L7.09063 11.8413L7.08041 11.8198L7.07017 11.7959L7.06264 11.7746L7.05243 11.7531L7.04219 11.7316L7.03466 11.7101L7.02444 11.6886L7.0142 11.6671L7.00656 11.6456L6.99646 11.6218L6.98622 11.6003L6.97855 11.5788L6.9683 11.5573H6.94289H6.91747H6.89205H6.86663H6.84361H6.81817H6.79275H6.76719H6.74177H6.71633H6.69091H6.66549H6.6399H6.61449H6.59164H6.56605H6.5406H6.51519H6.48977H6.46421H6.43876H6.41335H6.38793H6.36251H6.33946H6.31407H6.28863H6.26304H6.23762L6.22755 11.5788L6.21988 11.6003L6.20964 11.6218L6.19942 11.6456L6.19189 11.6671L6.18168 11.6886L6.17144 11.7101L6.16377 11.7316L6.1537 11.7531L6.14346 11.7746L6.13578 11.7959L6.12568 11.8198L6.11547 11.8413L6.1078 11.8628L6.09756 11.8843H6.07214H6.04672H6.0213H5.99572H5.9703H5.94231H5.9169H5.89145H5.86589H5.84047H5.81506H5.78961H5.76402H5.73863H5.71321H5.68523H5.65964H5.63422H5.60878H5.58336L5.59343 11.8628L5.60367 11.8413L5.61388 11.8198L5.62398 11.7959L5.63166 11.7746L5.6419 11.7531L5.65211 11.7316L5.66218 11.7101L5.67242 11.6886L5.68266 11.6647L5.69273 11.6432L5.70297 11.6218L5.71062 11.6003L5.72086 11.5788L5.73093 11.5573L5.74117 11.5334L5.75138 11.5119L5.76148 11.4904L5.77172 11.469L5.78194 11.4475L5.78961 11.426L5.79968 11.4021L5.80992 11.3806L5.82016 11.3591L5.83023 11.3376L5.84047 11.3161L5.85071 11.2947L5.86078 11.2708L5.86846 11.2493L5.8787 11.2278L5.88891 11.2063L5.89901 11.1848L5.90922 11.1633L5.91943 11.1395L5.92953 11.118L5.93975 11.0965L5.94742 11.075L5.95766 11.0535L5.96773 11.032L5.97797 11.0081L5.98821 10.9867L5.99828 10.9652L6.00849 10.9437L6.01874 10.9222L6.02641 10.9007L6.03651 10.8794L6.04672 10.8555L6.05693 10.834L6.06703 10.8125L6.07724 10.791L6.08749 10.7695L6.09756 10.748L6.10523 10.7241L6.11547 10.7027L6.12568 10.6812L6.13578 10.6597L6.14602 10.6382L6.15623 10.6167L6.16633 10.5928L6.17655 10.5714L6.18422 10.5499L6.19443 10.5284L6.20453 10.5069L6.21474 10.4854L6.22498 10.4615L6.23505 10.44L6.2453 10.4185L6.25554 10.397L6.26304 10.3756L6.27328 10.3541L6.28352 10.3302L6.29376 10.3087L6.30383 10.2872L6.31407 10.2657L6.32429 10.2442L6.33436 10.2228L6.34206 10.1989L6.35227 10.1774L6.36251 10.1559L6.37258 10.1344H6.398H6.42102H6.44644H6.47185H6.49744H6.52029H6.54571H6.57116H6.59674H6.61962H6.64501H6.67046H6.69602H6.7189H6.74431H6.76973H6.79532H6.81817H6.84361L6.85383 10.1559L6.86407 10.1774L6.87417 10.1989L6.88438 10.2228L6.89205 10.2442L6.90212 10.2657L6.91236 10.2872L6.92258 10.3087L6.93282 10.3302L6.94289 10.3541L6.95313 10.3756L6.96337 10.397L6.97087 10.4185L6.98111 10.44L6.99135 10.4615L7.0016 10.4854L7.01166 10.5069L7.02188 10.5284L7.03212 10.5499L7.04219 10.5714L7.04986 10.5928L7.06007 10.6167L7.07017 10.6382L7.08041 10.6597L7.09063 10.6812L7.10087 10.7027L7.11094 10.7241L7.12115 10.748L7.12885 10.7695L7.13892 10.791L7.14914 10.8125L7.15938 10.834L7.16962 10.8555L7.17969 10.8794L7.18993 10.9007L7.20014 10.9222L7.20767 10.9437L7.21788 10.9652L7.22813 10.9867L7.23822 11.0081L7.24844 11.032L7.25868 11.0535L7.26892 11.075L7.27899 11.0965L7.28666 11.118L7.29687 11.1395L7.30697 11.1633L7.31719 11.1848L7.32743 11.2063L7.33764 11.2278L7.34774 11.2493L7.35798 11.2708L7.36562 11.2947L7.37572 11.3161L7.38593 11.3376L7.39618 11.3591L7.40625 11.3806L7.41649 11.4021L7.42673 11.426L7.43697 11.4475L7.44447 11.469L7.45471 11.4904L7.46495 11.5119L7.47502 11.5334L7.48524 11.5573L7.49548 11.5788L7.50569 11.6003L7.51576 11.6218L7.52346 11.6432L7.5337 11.6647L7.54377 11.6886L7.55399 11.7101L7.5642 11.7316L7.5743 11.7531L7.58451 11.7746L7.59475 11.7959L7.60245 11.8198L7.61249 11.8413L7.62274 11.8628L7.63295 11.8843H7.60756ZM5.37697 11.6623L5.35652 11.6767L5.33875 11.6886L5.31829 11.7029L5.29798 11.7149L5.27767 11.7292L5.25722 11.7411L5.2369 11.7531L5.21388 11.765L5.19101 11.777L5.16813 11.7889L5.14513 11.7983L5.12226 11.8102L5.09684 11.8198L5.07399 11.8293L5.0484 11.8389L5.02555 11.8484L5.00264 11.8556L4.97965 11.8628L4.95677 11.87L4.93136 11.8771L4.90851 11.8843L4.88292 11.8891L4.86004 11.8938L4.83462 11.8986L4.80906 11.9034L4.78362 11.9057L4.75563 11.9081L4.73021 11.9105L4.70223 11.9129L4.67664 11.9153L4.64868 11.9177H4.6207H4.59269H4.56473H4.53914L4.51373 11.9153L4.48574 11.9129L4.46032 11.9105L4.43491 11.9081L4.40932 11.9057L4.3839 11.901L4.35845 11.8962L4.3356 11.8914L4.31004 11.8867L4.28717 11.8795L4.26175 11.8747L4.23873 11.8675L4.21585 11.858L4.19297 11.8508L4.16758 11.8413L4.14456 11.8317L4.12168 11.8222L4.09883 11.8126L4.07578 11.8007L4.0555 11.7889L4.03262 11.777L4.01217 11.765L3.99186 11.7531L3.9714 11.7387L3.95109 11.7244L3.93075 11.7101L3.91287 11.6958L3.89512 11.6815L3.87721 11.6647L3.85946 11.6504L3.84155 11.6337L3.82381 11.617L3.80846 11.6003L3.79325 11.5812L3.77791 11.5645L3.76513 11.5454L3.74992 11.5262L3.73717 11.5072L3.72451 11.4881L3.71173 11.4666L3.69895 11.4475L3.68888 11.426L3.67863 11.4045L3.66842 11.383L3.65832 11.3615L3.65065 11.3424L3.64041 11.3209L3.6353 11.2994L3.62777 11.278L3.62266 11.2541L3.61499 11.2326L3.60988 11.2087L3.60732 11.1872L3.60218 11.1633L3.59967 11.1419L3.59708 11.118L3.59468 11.0941L3.59214 11.0702V11.044V11.0201V11.0153V10.9914L3.59468 10.9652V10.9413L3.59708 10.9174L3.59967 10.8912L3.60478 10.8674L3.60732 10.8435L3.61242 10.822L3.6201 10.7982L3.62523 10.7743L3.63273 10.7528L3.64041 10.7289L3.64808 10.7074L3.65832 10.6836L3.66842 10.6621L3.67863 10.6406L3.68888 10.6191L3.69895 10.5976L3.71173 10.5761L3.72451 10.557L3.73717 10.5379L3.74992 10.5188L3.76273 10.4997L3.77791 10.4806L3.79325 10.4615L3.80846 10.4424L3.82381 10.4257L3.84155 10.409L3.8569 10.3923L3.87467 10.3756L3.89256 10.3588L3.9103 10.3445L3.93075 10.3278L3.94853 10.3135L3.96884 10.2991L3.98929 10.2872L4.0096 10.2729L4.03008 10.261L4.05037 10.249L4.07324 10.2371L4.09627 10.2251L4.11912 10.2132L4.14199 10.2036L4.16499 10.1941L4.19043 10.1822L4.21074 10.175L4.23616 10.1678L4.25921 10.1583L4.28206 10.1535L4.30491 10.1463L4.33047 10.1416L4.35335 10.1344L4.37876 10.1296L4.40421 10.1272L4.42977 10.1225L4.45522 10.1201L4.48061 10.1177L4.50605 10.1153L4.53164 10.1129H4.55962H4.58504H4.613H4.64098L4.66914 10.1153L4.69712 10.1177H4.72254L4.74796 10.1201L4.77594 10.1249L4.79896 10.1272L4.82438 10.132L4.84983 10.1368L4.87282 10.1416L4.89567 10.1463L4.91858 10.1511L4.9416 10.1583L4.96445 10.1631L4.98476 10.1702L5.00778 10.1774L5.03066 10.1869L5.05351 10.1965L5.07653 10.206L5.09941 10.218L5.12226 10.2275L5.14274 10.2395L5.16559 10.2514L5.1859 10.2633L5.20892 10.2753L5.22923 10.2896L5.24954 10.3015L5.27 10.3159L5.29031 10.3302L5.31076 10.3469L5.33107 10.3612L5.31572 10.3804L5.29798 10.397L5.28263 10.4161L5.26489 10.4352L5.24954 10.4544L5.23434 10.4711L5.21642 10.4902L5.20125 10.5092L5.1859 10.526L5.16813 10.5451L5.15281 10.5642L5.13504 10.5833L5.11969 10.6L5.10451 10.6191L5.08663 10.6382L5.07139 10.6573L5.05351 10.674L5.0383 10.6931L5.01785 10.6788L4.99754 10.6621L4.97708 10.6501L4.95677 10.6358L4.93646 10.6239L4.91601 10.6119L4.89567 10.6L4.87282 10.5881L4.85236 10.5785L4.83205 10.569L4.8116 10.5618L4.78872 10.5546L4.76587 10.5475L4.74285 10.5427L4.71743 10.5379L4.69202 10.5331L4.66657 10.5308L4.63859 10.5284L4.61046 10.526H4.58247H4.55706L4.53164 10.5284L4.50862 10.5308L4.4832 10.5355L4.46032 10.5403L4.4373 10.5475L4.41445 10.5546L4.39157 10.5642L4.3687 10.5737L4.34824 10.5857L4.32796 10.5976L4.30748 10.6096L4.28973 10.6239L4.27182 10.6382L4.25407 10.6525L4.23873 10.6692L4.22098 10.686L4.20564 10.705L4.19297 10.7218L4.18019 10.7409L4.16758 10.7624L4.15477 10.7815L4.14456 10.8029L4.13689 10.8244L4.12679 10.8459L4.11912 10.8698L4.11401 10.8935L4.1089 10.915L4.10377 10.9413L4.10123 10.9652L4.09883 10.989V11.0153V11.0201V11.044L4.10123 11.0678L4.10377 11.0893L4.10634 11.1132L4.11144 11.1347L4.11658 11.1562L4.12168 11.1777L4.12936 11.1992L4.13689 11.2182L4.14713 11.2421L4.15734 11.2636L4.16998 11.2851L4.18276 11.3042L4.19554 11.3233L4.21074 11.3424L4.22609 11.3591L4.24383 11.3759L4.25921 11.3926L4.27692 11.4069L4.29741 11.4212L4.31772 11.4355L4.338 11.4475L4.35845 11.4594L4.38136 11.469L4.40421 11.4785L4.4272 11.4881L4.45265 11.4952L4.47807 11.5024L4.50365 11.5072L4.52907 11.5119L4.55449 11.5143L4.58247 11.5167H4.61046H4.64098L4.66914 11.5143L4.69712 11.5119L4.72254 11.5095L4.74796 11.5048L4.77355 11.5L4.79896 11.4928L4.82181 11.4881L4.84472 11.4785L4.86517 11.469L4.88802 11.4594L4.90591 11.4499L4.92625 11.4379V11.414V11.3902V11.3663V11.3424V11.3161V11.2923V11.2684V11.2445V11.2206H4.9008H4.87781H4.85236H4.82695H4.80153H4.77851H4.75306H4.72765H4.70223H4.67924H4.65379H4.62837H4.60293H4.57994H4.55449V11.1968V11.1753V11.1514V11.1275V11.1036V11.0822V11.0583V11.0344V11.0105V10.989V10.9652V10.9413V10.9174V10.8959V10.8722H4.57994H4.60549H4.63094H4.65633H4.68178H4.70719H4.73278H4.7582H4.78362H4.80906H4.83462H4.86004H4.88546H4.91087H4.93646H4.96191H4.98733H5.01274H5.0383H5.06375H5.08917H5.11458H5.14014H5.16559H5.19101H5.21642H5.24201H5.26743H5.29287H5.31829H5.34385H5.36927H5.39472V10.8959V10.9198V10.9437V10.9652V10.989V11.0129V11.0368V11.0607V11.0846V11.106V11.1299V11.1538V11.1777V11.2015V11.2254V11.2493V11.2708V11.2947V11.3185V11.3424V11.3663V11.3902V11.414V11.4355V11.4594V11.4833V11.5072V11.531V11.5549V11.5764V11.6003V11.6241V11.648L5.37697 11.6623ZM5.66052 6.21383H4.55702V7.94752H5.72191V8.74443H3.61995V2.99323H5.70445V3.79011H4.55702V5.41695H5.66052V6.21383ZM12.4669 6.38645V7.6846C12.4669 7.91467 12.353 8.02141 12.1167 8.02141H11.9414C11.6962 8.02141 11.5823 7.91467 11.5823 7.6846V4.05301C11.5823 3.82296 11.6962 3.71622 11.9414 3.71622H12.0991C12.3356 3.71622 12.4495 3.82296 12.4495 4.05301V5.17872H13.369V4.00371C13.369 3.28899 13.0011 2.9439 12.2393 2.9439H11.7838C11.0219 2.9439 10.6452 3.29714 10.6452 4.012V7.72561C10.6452 8.44049 11.0219 8.79371 11.7838 8.79371H12.248C13.01 8.79371 13.3866 8.44049 13.3866 7.72561V6.38645H12.4669ZM10.149 8.74471H9.2118V2.99349H10.149V8.74471ZM7.8529 5.54838C7.8529 5.77845 7.73916 5.88532 7.50267 5.88532H7.11725V3.76553H7.50267C7.73916 3.76553 7.8529 3.87229 7.8529 4.10231V5.54838ZM7.65147 2.9932H6.18015V8.74443H7.11725V6.65749H7.65147C8.41345 6.65749 8.79 6.30427 8.79 5.58955V4.0613C8.79 3.34645 8.41345 2.9932 7.65147 2.9932ZM11.1991 13.9446H5.83456L8.46096 14.7877L11.1991 13.9446Z" fill="#F2E8D9"/>
</g>
</g>
</g>
<defs>
<clipPath id="clip0_10494_11752">
<rect width="16" height="16" fill="white" transform="translate(0.5 0.5)"/>
</clipPath>
</defs>
</svg>
