<svg width="17" height="17" viewBox="0 0 17 17" fill="none" xmlns="http://www.w3.org/2000/svg">
<g id="gog" clip-path="url(#clip0_9467_11565)">
<path id="Vector" d="M15.0882 15.8141H1.91176C1.53734 15.8141 1.17825 15.665 0.913496 15.3995C0.648739 15.134 0.5 14.7739 0.5 14.3984L0.5 2.60122C0.5 2.22576 0.648739 1.86568 0.913496 1.60019C1.17825 1.3347 1.53734 1.18555 1.91176 1.18555H15.0882C15.4627 1.18555 15.8217 1.3347 16.0865 1.60019C16.3513 1.86568 16.5 2.22576 16.5 2.60122V14.3984C16.5 14.7739 16.3513 15.134 16.0865 15.3995C15.8217 15.665 15.4627 15.8141 15.0882 15.8141ZM2.38235 12.7468C2.38235 12.9346 2.45672 13.1146 2.5891 13.2474C2.72148 13.3801 2.90102 13.4547 3.08824 13.4547H5.67647V12.5109H3.55882C3.49642 12.5109 3.43657 12.486 3.39245 12.4418C3.34832 12.3975 3.32353 12.3375 3.32353 12.2749V10.8593C3.32353 10.7967 3.34832 10.7367 3.39245 10.6924C3.43657 10.6482 3.49642 10.6233 3.55882 10.6233H5.67647V9.67956H3.08824C2.90102 9.67956 2.72148 9.75413 2.5891 9.88688C2.45672 10.0196 2.38235 10.1997 2.38235 10.3874V12.7468ZM6.14706 4.25283C6.14706 4.0651 6.07269 3.88506 5.94031 3.75231C5.80793 3.61957 5.62839 3.54499 5.44118 3.54499H3.08824C2.90102 3.54499 2.72148 3.61957 2.5891 3.75231C2.45672 3.88506 2.38235 4.0651 2.38235 4.25283V6.61228C2.38235 6.8 2.45672 6.98004 2.5891 7.11279C2.72148 7.24553 2.90102 7.32011 3.08824 7.32011H4.73529V6.37633H3.55882C3.49642 6.37633 3.43657 6.35147 3.39245 6.30722C3.34832 6.26298 3.32353 6.20296 3.32353 6.14039V4.72472C3.32353 4.66214 3.34832 4.60213 3.39245 4.55788C3.43657 4.51363 3.49642 4.48877 3.55882 4.48877H4.97059C5.03299 4.48877 5.09284 4.51363 5.13697 4.55788C5.18109 4.60213 5.20588 4.66214 5.20588 4.72472V7.55605C5.20588 7.61863 5.18109 7.67864 5.13697 7.72289C5.09284 7.76714 5.03299 7.792 4.97059 7.792H2.38235V8.73578H5.44118C5.62839 8.73578 5.80793 8.6612 5.94031 8.52846C6.07269 8.39571 6.14706 8.21567 6.14706 8.02794V4.25283ZM6.14706 10.3874V12.7468C6.14706 12.9346 6.22143 13.1146 6.35381 13.2474C6.48619 13.3801 6.66573 13.4547 6.85294 13.4547H9.20588C9.39309 13.4547 9.57264 13.3801 9.70502 13.2474C9.83739 13.1146 9.91177 12.9346 9.91177 12.7468V10.3874C9.91177 10.1997 9.83739 10.0196 9.70502 9.88688C9.57264 9.75413 9.39309 9.67956 9.20588 9.67956H6.85294C6.66573 9.67956 6.48619 9.75413 6.35381 9.88688C6.22143 10.0196 6.14706 10.1997 6.14706 10.3874ZM10.3824 4.25283C10.3824 4.0651 10.308 3.88506 10.1756 3.75231C10.0432 3.61957 9.86368 3.54499 9.67647 3.54499H7.32353C7.13632 3.54499 6.95677 3.61957 6.8244 3.75231C6.69202 3.88506 6.61765 4.0651 6.61765 4.25283V6.61228C6.61765 6.8 6.69202 6.98004 6.8244 7.11279C6.95677 7.24553 7.13632 7.32011 7.32353 7.32011H9.67647C9.86368 7.32011 10.0432 7.24553 10.1756 7.11279C10.308 6.98004 10.3824 6.8 10.3824 6.61228V4.25283ZM14.6176 4.25283C14.6176 4.0651 14.5433 3.88506 14.4109 3.75231C14.2785 3.61957 14.099 3.54499 13.9118 3.54499H11.5588C11.3716 3.54499 11.1921 3.61957 11.0597 3.75231C10.9273 3.88506 10.8529 4.0651 10.8529 4.25283V6.61228C10.8529 6.8 10.9273 6.98004 11.0597 7.11279C11.1921 7.24553 11.3716 7.32011 11.5588 7.32011H13.2059V6.37633H12.0294C11.967 6.37633 11.9072 6.35147 11.863 6.30722C11.8189 6.26298 11.7941 6.20296 11.7941 6.14039V4.72472C11.7941 4.66214 11.8189 4.60213 11.863 4.55788C11.9072 4.51363 11.967 4.48877 12.0294 4.48877H13.4412C13.5036 4.48877 13.5634 4.51363 13.6076 4.55788C13.6517 4.60213 13.6765 4.66214 13.6765 4.72472V7.55605C13.6765 7.61863 13.6517 7.67864 13.6076 7.72289C13.5634 7.76714 13.5036 7.792 13.4412 7.792H10.8529V8.73578H13.9118C14.099 8.73578 14.2785 8.6612 14.4109 8.52846C14.5433 8.39571 14.6176 8.21567 14.6176 8.02794V4.25283ZM14.6176 9.67956H11.0882C10.901 9.67956 10.7215 9.75413 10.5891 9.88688C10.4567 10.0196 10.3824 10.1997 10.3824 10.3874V13.4547H11.3235V10.8593C11.3235 10.7967 11.3483 10.7367 11.3924 10.6924C11.4366 10.6482 11.4964 10.6233 11.5588 10.6233H12.0294V13.4547H12.9706V10.6233H13.6765V13.4547H14.6176V9.67956ZM9.20588 6.37633H7.79412C7.73171 6.37633 7.67187 6.35147 7.62774 6.30722C7.58361 6.26298 7.55882 6.20296 7.55882 6.14039V4.72472C7.55882 4.66214 7.58361 4.60213 7.62774 4.55788C7.67187 4.51363 7.73171 4.48877 7.79412 4.48877H9.20588C9.26829 4.48877 9.32813 4.51363 9.37226 4.55788C9.41639 4.60213 9.44118 4.66214 9.44118 4.72472V6.14039C9.44118 6.20296 9.41639 6.26298 9.37226 6.30722C9.32813 6.35147 9.26829 6.37633 9.20588 6.37633ZM7.32353 10.6233H8.73529C8.7977 10.6233 8.85755 10.6482 8.90167 10.6924C8.9458 10.7367 8.97059 10.7967 8.97059 10.8593V12.2749C8.97059 12.3375 8.9458 12.3975 8.90167 12.4418C8.85755 12.486 8.7977 12.5109 8.73529 12.5109H7.32353C7.26113 12.5109 7.20128 12.486 7.15715 12.4418C7.11303 12.3975 7.08824 12.3375 7.08824 12.2749V10.8593C7.08824 10.7967 7.11303 10.7367 7.15715 10.6924C7.20128 10.6482 7.26113 10.6233 7.32353 10.6233Z" fill="#F2E8D9"/>
</g>
<defs>
<clipPath id="clip0_9467_11565">
<rect width="16" height="16" fill="white" transform="translate(0.5 0.5)"/>
</clipPath>
</defs>
</svg>
