<svg width="20" height="20" viewBox="0 0 20 20" fill="none" xmlns="http://www.w3.org/2000/svg">
<g id="nav icons">
<mask id="mask0_10604_11657" style="mask-type:alpha" maskUnits="userSpaceOnUse" x="0" y="0" width="20" height="20">
<rect id="Bounding box" width="20" height="20" fill="#D9D9D9"/>
</mask>
<g mask="url(#mask0_10604_11657)">
<g id="language">
<path d="M10.0008 18.3334C8.86192 18.3334 7.78554 18.1145 6.77165 17.6767C5.75776 17.2395 4.87248 16.6423 4.11581 15.8851C3.35859 15.1284 2.76137 14.2431 2.32415 13.2292C1.88637 12.2154 1.66748 11.139 1.66748 10.0001C1.66748 8.8473 1.88637 7.76758 2.32415 6.76091C2.76137 5.75369 3.35859 4.87175 4.11581 4.11508C4.87248 3.35786 5.75776 2.76036 6.77165 2.32258C7.78554 1.88536 8.86192 1.66675 10.0008 1.66675C11.1536 1.66675 12.2333 1.88536 13.24 2.32258C14.2472 2.76036 15.1291 3.35786 15.8858 4.11508C16.643 4.87175 17.2403 5.75369 17.6775 6.76091C18.1153 7.76758 18.3341 8.8473 18.3341 10.0001C18.3341 11.139 18.1153 12.2154 17.6775 13.2292C17.2403 14.2431 16.643 15.1284 15.8858 15.8851C15.1291 16.6423 14.2472 17.2395 13.24 17.6767C12.2333 18.1145 11.1536 18.3334 10.0008 18.3334ZM10.0008 16.6251C10.3619 16.1251 10.6744 15.6042 10.9383 15.0626C11.2022 14.5209 11.4175 13.9445 11.5841 13.3334H8.41748C8.58415 13.9445 8.79942 14.5209 9.06331 15.0626C9.3272 15.6042 9.6397 16.1251 10.0008 16.6251ZM7.83415 16.2917C7.58415 15.8334 7.36554 15.3576 7.17831 14.8642C6.99054 14.3715 6.83415 13.8612 6.70915 13.3334H4.25081C4.65359 14.0279 5.15692 14.632 5.76081 15.1459C6.36526 15.6598 7.05637 16.0417 7.83415 16.2917ZM12.1675 16.2917C12.9453 16.0417 13.6361 15.6598 14.24 15.1459C14.8444 14.632 15.348 14.0279 15.7508 13.3334H13.2925C13.1675 13.8612 13.0114 14.3715 12.8241 14.8642C12.6364 15.3576 12.4175 15.8334 12.1675 16.2917ZM3.54248 11.6667H6.37581C6.33415 11.389 6.30276 11.1145 6.28165 10.8434C6.26109 10.5729 6.25081 10.2917 6.25081 10.0001C6.25081 9.70841 6.26109 9.4273 6.28165 9.15675C6.30276 8.88564 6.33415 8.61119 6.37581 8.33341H3.54248C3.47304 8.61119 3.42081 8.88564 3.38581 9.15675C3.35137 9.4273 3.33415 9.70841 3.33415 10.0001C3.33415 10.2917 3.35137 10.5729 3.38581 10.8434C3.42081 11.1145 3.47304 11.389 3.54248 11.6667ZM8.04248 11.6667H11.9591C12.0008 11.389 12.0322 11.1145 12.0533 10.8434C12.0739 10.5729 12.0841 10.2917 12.0841 10.0001C12.0841 9.70841 12.0739 9.4273 12.0533 9.15675C12.0322 8.88564 12.0008 8.61119 11.9591 8.33341H8.04248C8.00081 8.61119 7.9697 8.88564 7.94915 9.15675C7.92804 9.4273 7.91748 9.70841 7.91748 10.0001C7.91748 10.2917 7.92804 10.5729 7.94915 10.8434C7.9697 11.1145 8.00081 11.389 8.04248 11.6667ZM13.6258 11.6667H16.4591C16.5286 11.389 16.5808 11.1145 16.6158 10.8434C16.6503 10.5729 16.6675 10.2917 16.6675 10.0001C16.6675 9.70841 16.6503 9.4273 16.6158 9.15675C16.5808 8.88564 16.5286 8.61119 16.4591 8.33341H13.6258C13.6675 8.61119 13.6986 8.88564 13.7191 9.15675C13.7403 9.4273 13.7508 9.70841 13.7508 10.0001C13.7508 10.2917 13.7403 10.5729 13.7191 10.8434C13.6986 11.1145 13.6675 11.389 13.6258 11.6667ZM13.2925 6.66675H15.7508C15.348 5.9723 14.8444 5.36814 14.24 4.85425C13.6361 4.34036 12.9453 3.95841 12.1675 3.70841C12.4175 4.16675 12.6364 4.6423 12.8241 5.13508C13.0114 5.62841 13.1675 6.13897 13.2925 6.66675ZM8.41748 6.66675H11.5841C11.4175 6.05564 11.2022 5.47925 10.9383 4.93758C10.6744 4.39591 10.3619 3.87508 10.0008 3.37508C9.6397 3.87508 9.3272 4.39591 9.06331 4.93758C8.79942 5.47925 8.58415 6.05564 8.41748 6.66675ZM4.25081 6.66675H6.70915C6.83415 6.13897 6.99054 5.62841 7.17831 5.13508C7.36554 4.6423 7.58415 4.16675 7.83415 3.70841C7.05637 3.95841 6.36526 4.34036 5.76081 4.85425C5.15692 5.36814 4.65359 5.9723 4.25081 6.66675Z" fill="#8C8983"/>
</g>
</g>
</g>
</svg>
