<svg width="17" height="17" viewBox="0 0 17 17" fill="none" xmlns="http://www.w3.org/2000/svg">
<g id="ms" clip-path="url(#clip0_9467_11561)">
<path id="path21" d="M7.04053 0.5C6.98439 0.5 6.92787 0.501501 6.87173 0.504879C5.16687 0.605453 3.81152 2.19288 3.84497 4.05051C3.84805 4.21638 3.86227 4.38113 3.88765 4.544L1.21578 5.07202L1.18579 14.2085L12.9249 16.5L15.8144 15.4717L15.724 3.80846L14.2191 3.51461L12.9549 2.75092L11.4511 3.04814C11.0808 1.87014 10.1511 0.925566 8.94763 0.923689C9.24062 1.14585 9.40826 1.34137 9.51438 1.51851C10.3787 1.75193 10.7059 2.42405 10.9651 3.14421L5.72516 4.18036C5.92818 2.60344 6.92364 1.55566 7.94717 1.32449L7.28699 1.13572C6.35651 1.508 5.28876 2.73141 5.32682 4.25879L4.21601 4.47833C4.19217 4.32897 4.17872 4.17773 4.17602 4.02574C4.14642 2.38052 5.33644 0.974727 6.83328 0.885786C6.88596 0.882784 6.93863 0.881283 6.99131 0.881283C8.3259 0.887663 9.42402 1.96284 9.57936 3.41554L9.99539 3.3326C9.80621 1.70127 8.55468 0.501126 7.04053 0.5ZM9.86966 6.79079V9.72134H6.49839V7.26102L9.86966 6.79079ZM6.39303 7.27528V9.72097H3.75923V7.6423L6.39303 7.27528ZM3.75923 9.82379H6.39303V12.2969L3.75923 11.9171V9.82379ZM6.49839 9.82379H9.86966V12.7983L6.49839 12.3119V9.82379Z" fill="#F2E8D9"/>
</g>
<defs>
<clipPath id="clip0_9467_11561">
<rect width="16" height="16" fill="white" transform="translate(0.5 0.5)"/>
</clipPath>
</defs>
</svg>
