<svg width="17" height="17" viewBox="0 0 17 17" fill="none" xmlns="http://www.w3.org/2000/svg">
<g id="steam" clip-path="url(#clip0_9467_11546)">
<g id="Group 512850">
<path id="Vector" d="M8.48614 0.5C4.27641 0.5 0.827714 3.7262 0.5 7.8262L4.79524 9.59126C5.15919 9.34387 5.59886 9.19892 6.07186 9.19892C6.11425 9.19892 6.15646 9.20072 6.19831 9.2027L8.10843 6.45095C8.10843 6.4378 8.10843 6.42502 8.10843 6.41206C8.10843 4.75574 9.46403 3.40822 11.1307 3.40822C12.7971 3.40822 14.1527 4.75574 14.1527 6.41206C14.1527 8.06837 12.7971 9.41607 11.1307 9.41607C11.1077 9.41607 11.0848 9.41607 11.062 9.41427L8.33777 11.3462C8.33959 11.3814 8.34049 11.4172 8.34049 11.4528C8.34049 12.6963 7.32293 13.7075 6.07204 13.7075C4.97404 13.7075 4.05594 12.9286 3.84797 11.897L0.776084 10.6356C1.72716 13.9788 4.81752 16.4299 8.48614 16.4299C12.9122 16.4299 16.5 12.8637 16.5 8.46521C16.5 4.06596 12.912 0.5 8.48614 0.5Z" fill="#F2E8D9"/>
<path id="Vector_2" d="M5.52176 12.5857L4.53735 12.1815C4.71181 12.5425 5.01362 12.8448 5.41434 13.0108C6.28063 13.3695 7.27935 12.961 7.6404 12.0992C7.81521 11.6826 7.8163 11.2225 7.64293 10.8048C7.46993 10.3869 7.14348 10.061 6.72374 9.88709C6.30726 9.71478 5.86107 9.72108 5.46905 9.86819L6.48588 10.2861C7.12482 10.5508 7.42699 11.28 7.16069 11.915C6.89494 12.5503 6.1607 12.8506 5.52176 12.5857Z" fill="#F2E8D9"/>
<path id="Vector_3" d="M13.1439 6.41163C13.1439 5.30808 12.2407 4.41016 11.1302 4.41016C10.0199 4.41016 9.11646 5.30808 9.11646 6.41163C9.11646 7.51536 10.0199 8.41293 11.1302 8.41293C12.2407 8.41293 13.1439 7.51518 13.1439 6.41163ZM9.6208 6.40821C9.6208 5.5778 10.2981 4.90476 11.1336 4.90476C11.9691 4.90476 12.6465 5.5778 12.6465 6.40821C12.6465 7.23862 11.9691 7.91166 11.1336 7.91166C10.2981 7.91166 9.6208 7.23844 9.6208 6.40821Z" fill="#F2E8D9"/>
</g>
</g>
<defs>
<clipPath id="clip0_9467_11546">
<rect width="16" height="16" fill="white" transform="translate(0.5 0.5)"/>
</clipPath>
</defs>
</svg>
