<svg width="17" height="17" viewBox="0 0 17 17" fill="none" xmlns="http://www.w3.org/2000/svg">
<g id="xbox" clip-path="url(#clip0_9467_11557)">
<g id="Vector">
<path d="M2.88 2.80657L2.88702 2.79955L2.87862 2.80516L2.87859 2.80517C2.87845 2.80529 2.87846 2.80528 2.87862 2.80516C2.88951 2.7969 3.63002 2.23524 6.30184 4.89414C6.31027 4.90116 6.31729 4.90958 6.31729 4.92081C6.31729 4.93064 6.31167 4.93766 6.30606 4.94468C4.69553 6.86097 1.57697 11.432 2.18917 13.3188C2.19479 13.3328 2.19338 13.3511 2.17934 13.3595C2.1639 13.3665 2.14705 13.3595 2.13581 13.3455C1.07289 11.9528 0.497202 10.2499 0.50001 8.49929C0.497202 6.35979 1.35512 4.30872 2.88 2.80797V2.80657Z" fill="#F2E8D9"/>
<path d="M14.1214 2.80657L14.1144 2.79955L14.1186 2.80797L14.1187 2.80806C14.1186 2.80816 13.3912 2.21412 10.6996 4.89273C10.6911 4.89975 10.6841 4.90817 10.6841 4.91941C10.6841 4.92783 10.6897 4.93485 10.6953 4.94187C12.3059 6.85956 15.4202 11.4334 14.8108 13.3188C14.8066 13.3328 14.8066 13.3511 14.8207 13.3595C14.8361 13.3665 14.8544 13.3595 14.8642 13.3455C15.9271 11.9528 16.5028 10.2499 16.5 8.49929C16.5042 6.35979 15.6463 4.30872 14.1214 2.80797V2.80657Z" fill="#F2E8D9"/>
<path d="M12.6681 1.67083C11.4437 0.942221 10.1154 0.5 8.5007 0.5C6.89017 0.5 5.54502 0.942221 4.31922 1.67926C4.30518 1.68768 4.29957 1.70453 4.30518 1.71857C4.3122 1.73401 4.32905 1.73541 4.3445 1.7326C5.71492 1.38163 7.89131 2.52299 8.48245 2.86132C8.48806 2.86553 8.49368 2.86834 8.5007 2.86834C8.50772 2.86834 8.51193 2.86413 8.51755 2.86132C8.7394 2.72795 11.0941 1.39006 12.6429 1.72418C12.6597 1.72839 12.6766 1.72418 12.6822 1.71014C12.6878 1.6947 12.6836 1.67785 12.6681 1.67083Z" fill="#F2E8D9"/>
<path d="M8.52597 6.92836C8.52036 6.92274 8.51053 6.91572 8.5007 6.91572C8.49087 6.91572 8.47964 6.92274 8.47262 6.92836C6.0814 8.74778 1.98417 13.2486 3.23243 14.5205C4.68851 15.7981 6.56161 16.5028 8.4993 16.5C10.437 16.5028 12.3101 15.7981 13.7662 14.5205H13.7676C15.0186 13.2486 10.92 8.74918 8.52597 6.92836Z" fill="#F2E8D9"/>
</g>
</g>
<defs>
<clipPath id="clip0_9467_11557">
<rect width="16" height="16" fill="white" transform="translate(0.5 0.5)"/>
</clipPath>
</defs>
</svg>
