<svg width="14" height="40" viewBox="0 0 14 40" fill="none" xmlns="http://www.w3.org/2000/svg">
<path fill-rule="evenodd" clip-rule="evenodd" d="M9.83323 -1.13249e-06H14.5V20V40H14.1099C14.0729 39.9515 14.0365 39.9031 14.0008 39.8555C13.6919 39.4432 13.4287 39.0917 12.9115 39.2945C11.9928 39.6542 10.1514 39.8939 9.25847 39.8279C9.20357 39.8872 9.13015 39.9368 9.03822 39.9725C8.92974 40.0146 8.74388 39.9545 8.53553 39.8372C8.48262 39.8845 8.4231 39.9403 8.35762 40H3.30968C3.10597 39.8342 2.9413 39.5604 2.72766 39.1161C2.43002 38.4985 2.28185 37.5204 2.39826 36.9427C2.56957 36.0931 2.46309 35.8274 1.84268 35.5549C1.15613 35.2532 0.70107 34.7497 0.499999 34.0931V30.3844C0.529763 30.3833 0.5602 30.3828 0.591948 30.3828C1.77522 30.3828 2.44986 29.7253 1.78315 29.2215C1.48287 28.9947 1.18193 28.5173 1.1138 28.161C0.95308 27.3154 0.585321 22.9165 0.621699 22.2733C0.637573 21.9988 0.615755 20.6514 0.574085 19.279C0.446432 15.0942 0.599214 13.6083 1.19846 13.1861C1.5252 12.9562 1.30428 12.0477 1.02715 10.9085C0.786392 9.92003 0.503968 8.75781 0.499999 7.7143V5.82566C0.545637 5.14258 0.693144 4.60898 1.1138 4.57143C1.73818 4.51581 2.40818 4.44542 2.42934 3.99999C2.43397 3.90799 2.38437 3.73499 2.32352 3.5219C2.1575 2.94079 1.9055 2.06159 2.42934 1.71431C3.06033 1.29635 3.64967 1.50498 4.01345 1.63378C4.30381 1.73673 4.45065 1.78865 4.35871 1.42857C4.09745 0.403075 5.88194 0.285746 6.61016 0.285746C7.18295 0.285746 10.5866 2.31066 10.5866 2.67323C10.5866 2.81744 10.8551 2.93522 11.1832 2.93522C12.0953 2.93522 11.8988 2.39079 10.6402 1.43262C9.76445 0.766107 9.57529 0.437777 9.82266 0.0175571L9.83323 -1.13249e-06ZM4.22113 10.3586C4.22113 11.179 3.26274 10.9492 3.1007 10.0898C3.03125 9.72299 3.13574 9.42282 3.33284 9.42282C3.93274 9.42282 4.22113 9.72623 4.22113 10.3586Z" fill="#333333"/>
</svg>
